# xmcd CD database file
#
# Track frame offsets:
#	150
#	18078
#	48635
#	58163
#	74206
#	95745
#	113692
#	129208
#	142373
#	158060
#	176526
#	189088
#	205503
#	221222
#	236545
#	258281
#
# Disc length: 3635 seconds
#
# Revision: 1
# Processed by: cddbd v1.5.2PL0 Copyright (c) Steve Scherf et al.
# Submitted via: CDex 1.70beta2
#
DISCID=ea0e3110
DTITLE=Disney - Disney’s Jazz Album Big Band Now
DYEAR=2009
DGENRE=Jazz
TTITLE0=It Don't Mean A Thing
TTITLE1=When You Wish Upon A Star
TTITLE2=Monsters，Inc．
TTITLE3=Disney’s Main Street Electrical Parade
TTITLE4=Under The Sea
TTITLE5=Alice In Wonderland
TTITLE6=Chim Chim Cher-ee
TTITLE7=You’ve Got A Friend In Me
TTITLE8=Zip-A-Dee-Doo-Dah
TTITLE9=He’s A Pirate
TTITLE10=Ev’rybody Wants To Be A Cat
TTITLE11=If I Didn’t Have You
TTITLE12=Cruella De Vil
TTITLE13=So This Is Love
TTITLE14=The Bare Necessities
TTITLE15=The Time Of Your Life
EXTD=YEAR: 2009
EXTT0=
EXTT1=
EXTT2=
EXTT3=
EXTT4=
EXTT5=
EXTT6=
EXTT7=
EXTT8=
EXTT9=
EXTT10=
EXTT11=
EXTT12=
EXTT13=
EXTT14=
EXTT15=
PLAYORDER=
